Original upload by tebor @ Demonoid.

====================================

From source :
===========

Silent Night Deadly Night 2 1987

Plot:
Ricky, the brother of the killer in the first film, talks to a psychitrist about how he became a brutal killer after his brother died, leading back to Mother Superior.

By request for
StrangeAnimal and aknowledgeseeker5

====================================
  
http://www.imdb.com/title/tt0093974/

Media nfo :
===========

Video
ID                               : 0
Format                           : MPEG-4 Visual
Format settings, BVOP            : 1
Format settings, QPel            : No
Format settings, GMC             : No warppoints
Format settings, Matrix          : Default (H.263)
Muxing mode                      : Packed bitstream
Codec ID                         : DX50
Codec ID/Hint                    : DivX 5
Duration                         : 1h 28mn
Bit rate                         : 917 Kbps
Width                            : 640 pixels
Height                           : 336 pixels
Display aspect ratio             : 1.905
Frame rate                       : 23.976 fps
Color space                      : YUV
Chroma subsampling               : 4:2:0
Bit depth                        : 8 bits
Scan type                        : Progressive
Compression mode                 : Lossy
Bits/(Pixel*Frame)               : 0.178
Stream size                      : 579 MiB (84%)
Writing library                  : DivX 5.1.1 (Maupiti) (UTC 2003-11-19)

Audio
ID                               : 1
Format                           : MPEG Audio
Format version                   : Version 1
Format profile                   : Layer 3
Codec ID                         : 55
Codec ID/Hint                    : MP3
Duration                         : 1h 28mn
Bit rate mode                    : Constant
Bit rate                         : 128 Kbps
Channel(s)                       : 2 channels
Sampling rate                    : 44.1 KHz
Compression mode                 : Lossy
Stream size                      : 80.8 MiB (12%)
Alignment                        : Split accross interleaves
Writing library                  : LAME3.92